<svg width="193" height="192" viewBox="0 0 193 192" fill="none" xmlns="http://www.w3.org/2000/svg">
<g id="phone">
<path id="shape" fill-rule="evenodd" clip-rule="evenodd" d="M59.1675 27.2681C51.7381 24.5773 43.4166 25.8456 37.037 30.6347C34.2627 32.7174 31.9663 35.802 28.9962 39.7915L27.9136 41.2443C23.3799 47.3239 20.3805 51.3459 18.5075 56.1159C14.4144 66.5398 15.5449 79.9567 21.3196 89.4308C23.961 93.7643 27.2323 96.8163 32.1314 101.387L32.8043 102.015C42.8269 111.369 55.4438 123.144 69.2094 133.405C82.096 143.011 95.0605 150.598 106.353 157.207L109.437 159.012C115.216 162.402 119.075 164.665 123.982 165.959C134.711 168.787 147.892 166.038 156.713 159.138C160.749 155.981 163.747 151.958 168.278 145.877L169.361 144.424C172.336 140.438 174.636 137.356 175.84 134.103C178.607 126.621 177.446 118.284 172.745 111.932C170.701 109.171 167.652 106.901 163.714 103.969L154.202 96.8793C153.8 96.5794 153.476 96.3377 153.161 96.1199C145.599 90.8872 135.531 91.0079 127.975 96.4109C127.66 96.6362 127.331 96.8892 126.927 97.1991L126.854 97.2557C126.194 97.7623 125.976 97.9295 125.781 98.0695C120.647 101.77 113.929 102.325 108.343 99.5185C108.131 99.4123 107.892 99.2834 107.169 98.8913L105.967 98.2391C104.822 97.6187 104.328 97.3501 103.846 97.0755C99.9431 94.8528 96.3296 92.1592 93.0848 89.054C92.684 88.6704 92.2853 88.2731 91.3639 87.3539L90.3954 86.3877C89.8132 85.8069 89.6213 85.6144 89.4592 85.4421C85.1741 80.8903 83.7871 74.2932 85.8669 68.3162C85.9457 68.09 86.0434 67.8326 86.3406 67.0561L86.3764 66.9627C86.558 66.4883 86.7043 66.1061 86.83 65.7403C89.8496 56.9555 87.0896 47.2721 79.915 41.5199C79.6163 41.2804 79.2861 41.0343 78.8836 40.7343L69.379 33.6488C65.4441 30.7117 62.3982 28.4382 59.1675 27.2681ZM44.6457 40.9018C47.5482 38.723 51.3291 38.1493 54.6996 39.3701C55.3016 39.5881 55.9717 39.9439 57.1326 40.7271C58.2949 41.5111 59.9183 42.7019 62.4254 44.5707L71.0929 51.0317C71.6125 51.4191 71.7442 51.5184 71.8461 51.6001C74.8218 53.9859 75.9731 58.0081 74.7158 61.6656C74.6728 61.7909 74.6139 61.9475 74.3796 62.5596L74.3435 62.6537C74.0963 63.2998 73.9218 63.7556 73.7689 64.1949C70.1135 74.6999 72.5474 86.3088 80.0946 94.3258C80.4099 94.6606 80.7513 95.0012 81.2344 95.4831L82.3299 96.576C83.1823 97.4265 83.6776 97.9206 84.1842 98.4054C88.1771 102.227 92.6237 105.541 97.4261 108.276C98.035 108.623 98.6538 108.959 99.7108 109.532L101.061 110.264L101.068 110.268C101.668 110.594 102.093 110.824 102.504 111.03C112.342 115.973 124.163 114.99 133.186 108.486C133.564 108.215 133.957 107.912 134.505 107.491L134.579 107.434C135.099 107.035 135.232 106.934 135.34 106.857C138.486 104.607 142.669 104.562 145.806 106.732C145.913 106.806 146.046 106.904 146.565 107.291L155.233 113.752C157.74 115.621 159.345 116.837 160.428 117.727C161.51 118.616 162.043 119.156 162.424 119.671C164.556 122.552 165.086 126.339 163.827 129.743C163.602 130.352 163.238 131.031 162.444 132.206C161.648 133.382 160.442 135.026 158.55 137.564C153.338 144.555 151.395 147.075 148.899 149.028C143.256 153.442 134.218 155.324 127.365 153.518C124.314 152.714 121.947 151.381 115.41 147.549C103.81 140.748 90.1607 132.103 76.793 122.138C63.4252 112.174 51.2414 101.562 41.4113 92.388C35.8711 87.2175 33.9183 85.3302 32.2758 82.6356C28.5872 76.5838 27.8096 67.385 30.4279 60.7171C31.5864 57.7667 33.4465 55.1844 38.6579 48.1933C40.5501 45.6549 41.781 44.0293 42.6811 42.931C43.5802 41.8339 44.1265 41.2916 44.6457 40.9018Z" fill="#201F29"/>
</g>
</svg>
